<svg width="98" height="96" viewBox="0 0 98 96" fill="none" xmlns="http://www.w3.org/2000/svg">
<g clip-path="url(#clip0_13_35)">
<path d="M46.4475 0.0968214C44.3179 0.244264 43.6358 0.303437 42.658 0.429701C30.4176 1.98922 19.2408 7.96993 11.4781 17.1159C5.49867 24.1587 1.65439 32.8671 0.446714 42.1028C0.1639 44.2675 0.0945152 45.3237 0.0915806 47.9458C0.0873045 51.7665 0.379833 54.4637 1.18659 58.128C3.66722 69.3606 10.279 79.6014 19.3729 86.2715C26.854 91.7637 35.3455 94.9421 44.8247 95.8068C46.2114 95.9357 50.7886 95.9408 52.1755 95.815C57.314 95.3563 61.9379 94.2827 66.5019 92.4823C79.0113 87.5444 88.6159 78.026 93.5858 65.6555C95.3869 61.1701 96.4452 56.7213 96.9131 51.6875C97.0435 50.3167 97.0485 45.7918 96.9212 44.4208C96.2175 36.7037 93.9368 29.6816 90.0488 23.2495C82.1519 10.2129 68.4222 1.73958 52.7447 0.238711C51.6157 0.132566 47.3266 0.0303767 46.4475 0.0968214ZM51.3697 3.27874C61.1144 3.94141 70.2875 7.59256 77.8813 13.8415C79.1457 14.8842 82.1206 17.8317 83.1726 19.084C85.5792 21.9559 87.3949 24.7149 89.0432 28.0055C90.0942 30.1043 90.7216 31.5658 91.4089 33.5743C94.7099 43.0998 94.6988 53.0036 91.3765 62.5216C89.8256 66.9848 87.5018 71.3273 84.671 75.0474C83.3657 76.769 82.3337 77.929 80.5433 79.695C77.0763 83.1148 73.7013 85.5457 69.3869 87.7359C62.7523 91.1072 55.7406 92.8074 48.5035 92.7993C37.9093 92.7874 27.5694 89.0301 19.226 82.1585C17.9616 81.1158 14.9867 78.1683 13.9347 76.916C11.5281 74.0441 9.71241 71.2852 8.06407 67.9945C7.01305 65.8957 6.38571 64.4342 5.69834 62.4257C2.39736 52.9003 2.40845 42.9965 5.73074 33.4785C6.4226 31.4715 7.05322 30.0114 8.10892 27.9149C9.76463 24.628 11.5865 21.8731 13.9995 19.0066C15.0543 17.7567 18.0358 14.8158 19.3025 13.7759C26.3339 8.01533 34.795 4.43636 43.7232 3.45747C46.0045 3.20531 49.1646 3.13393 51.3697 3.27874Z" fill="#BA0B0B"/>
<path d="M35.3176 25.136L35.307 34.5754L25.8722 34.5798L16.4374 34.5917L16.3998 47.8741L16.3698 61.1491L25.8273 61.1597L35.2772 61.1702L35.2669 70.4223L35.2565 79.6743L48.7077 79.6894L62.1588 79.7044L62.1692 70.4524L62.1796 61.2004L71.6522 61.211L81.1248 61.2216L81.1397 47.9241L81.1546 34.6267L71.682 34.6161L62.2093 34.6055L62.2199 25.1661L62.2304 15.7268L48.7793 15.7118L35.3281 15.6967L35.3176 25.136Z" fill="#BA0B0B"/>
</g>
<defs>
<clipPath id="clip0_13_35">
<rect width="97" height="95.8915" fill="white" transform="translate(0.1073) rotate(0.0641253)"/>
</clipPath>
</defs>
</svg>
