<svg width="36" height="36" viewBox="0 0 36 36" fill="none" xmlns="http://www.w3.org/2000/svg">
<path d="M14.7233 4.05011C11.9882 4.05011 9.25311 5.09062 7.17186 7.17188C3.00936 11.3344 3.00936 18.1123 7.17186 22.2748C9.25311 24.356 11.9813 25.3971 14.7376 25.3971C17.4938 25.3971 20.2221 24.356 22.3033 22.2748C26.4377 18.1123 26.4373 11.3344 22.2748 7.17188C20.1935 5.09062 17.4585 4.05011 14.7233 4.05011ZM14.7096 5.70959C17.0158 5.70959 19.322 6.58103 21.0657 8.35291C24.5813 11.8685 24.5812 17.5781 21.0937 21.0938C17.5781 24.6094 11.8685 24.6094 8.35289 21.0938C4.83727 17.5781 4.83727 11.8685 8.35289 8.35291C10.0966 6.60916 12.4033 5.70959 14.7096 5.70959ZM14.7096 7.39709C12.769 7.39709 10.9406 8.15625 9.56249 9.5625C8.24061 10.8844 7.50947 12.6001 7.4251 14.4564C7.39697 14.9345 7.76271 15.3 8.24083 15.3281H8.26885C8.71885 15.3281 9.08447 14.9624 9.1126 14.5124C9.16885 13.078 9.75914 11.756 10.7435 10.7435C11.8123 9.67478 13.219 9.08459 14.7096 9.08459C15.1877 9.08459 15.5533 8.71897 15.5533 8.24084C15.5533 7.76272 15.1877 7.39709 14.7096 7.39709ZM9.84374 18C9.61996 18 9.40535 18.0889 9.24712 18.2471C9.08888 18.4054 8.99999 18.62 8.99999 18.8438C8.99999 19.0675 9.08888 19.2821 9.24712 19.4404C9.40535 19.5986 9.61996 19.6875 9.84374 19.6875C10.0675 19.6875 10.2821 19.5986 10.4404 19.4404C10.5986 19.2821 10.6875 19.0675 10.6875 18.8438C10.6875 18.62 10.5986 18.4054 10.4404 18.2471C10.2821 18.0889 10.0675 18 9.84374 18ZM23.4459 22.6406C23.2315 22.6406 23.0205 22.7251 22.8658 22.8939C22.5283 23.2314 22.5283 23.7655 22.8658 24.0749L23.569 24.778C23.4002 25.1155 23.3157 25.4813 23.3157 25.875C23.3157 26.55 23.5687 27.197 24.0469 27.6751L27.6471 31.2188C28.1533 31.725 28.7998 31.9779 29.4466 31.9779C30.0935 31.9779 30.7405 31.7249 31.2468 31.2468C32.2311 30.2624 32.2311 28.6595 31.2468 27.6751L27.6471 24.0749C27.169 23.5968 26.522 23.3438 25.847 23.3438C25.4532 23.3438 25.0875 23.4282 24.75 23.597L24.0469 22.8939C23.8781 22.7251 23.6604 22.6406 23.4459 22.6406ZM25.847 25.0032C26.072 25.0032 26.2969 25.0877 26.4375 25.2565L30.0091 28.8281C30.3466 29.1656 30.3466 29.6998 30.0091 30.0092C29.6716 30.3467 29.1375 30.3467 28.8281 30.0092L25.2565 26.4655C25.0877 26.2968 25.0032 26.072 25.0032 25.847C25.0032 25.622 25.0877 25.3971 25.2565 25.2565C25.4252 25.0877 25.622 25.0032 25.847 25.0032Z" fill="black"/>
</svg>
