<svg width="569" height="90" viewBox="0 0 569 90" fill="none" xmlns="http://www.w3.org/2000/svg">
<mask id="path-1-outside-1_84_833" maskUnits="userSpaceOnUse" x="0" y="0.832283" width="569" height="89" fill="black">
<rect fill="white" y="0.832283" width="569" height="89"/>
<path fill-rule="evenodd" clip-rule="evenodd" d="M225.519 11.8323C223.741 16.315 222.764 21.2023 222.764 26.3178C222.764 48.0324 240.367 65.6356 262.082 65.6356H307.608C329.322 65.6356 346.926 48.0324 346.926 26.3178C346.926 21.2023 345.949 16.315 344.171 11.8323H553C555.761 11.8323 558 14.0709 558 16.8323V73.0517C558 75.8131 555.761 78.0517 553 78.0517H16C13.2386 78.0517 11 75.8131 11 73.0517V16.8323C11 14.0709 13.2386 11.8323 16 11.8323H225.519Z"/>
</mask>
<path fill-rule="evenodd" clip-rule="evenodd" d="M225.519 11.8323C223.741 16.315 222.764 21.2023 222.764 26.3178C222.764 48.0324 240.367 65.6356 262.082 65.6356H307.608C329.322 65.6356 346.926 48.0324 346.926 26.3178C346.926 21.2023 345.949 16.315 344.171 11.8323H553C555.761 11.8323 558 14.0709 558 16.8323V73.0517C558 75.8131 555.761 78.0517 553 78.0517H16C13.2386 78.0517 11 75.8131 11 73.0517V16.8323C11 14.0709 13.2386 11.8323 16 11.8323H225.519Z" fill="white" fill-opacity="0.54"/>
<path d="M225.519 11.8323L235.744 15.8868L241.713 0.832283H225.519V11.8323ZM344.171 11.8323V0.832283H327.977L333.946 15.8868L344.171 11.8323ZM222.764 26.3178H233.764C233.764 22.6133 234.47 19.1003 235.744 15.8868L225.519 11.8323L215.293 7.77777C213.012 13.5297 211.764 19.7913 211.764 26.3178H222.764ZM262.082 65.6356V54.6356C246.443 54.6356 233.764 41.9573 233.764 26.3178H222.764H211.764C211.764 54.1075 234.292 76.6356 262.082 76.6356V65.6356ZM307.608 65.6356V54.6356H262.082V65.6356V76.6356H307.608V65.6356ZM346.926 26.3178H335.926C335.926 41.9573 323.247 54.6356 307.608 54.6356V65.6356V76.6356C335.398 76.6356 357.926 54.1075 357.926 26.3178H346.926ZM344.171 11.8323L333.946 15.8868C335.22 19.1003 335.926 22.6133 335.926 26.3178H346.926H357.926C357.926 19.7913 356.677 13.5297 354.397 7.7778L344.171 11.8323ZM344.171 11.8323V22.8323H553V11.8323V0.832283H344.171V11.8323ZM553 11.8323V22.8323C549.686 22.8323 547 20.146 547 16.8323H558H569C569 7.99571 561.837 0.832283 553 0.832283V11.8323ZM558 16.8323H547V73.0517H558H569V16.8323H558ZM558 73.0517H547C547 69.738 549.686 67.0517 553 67.0517V78.0517V89.0517C561.837 89.0517 569 81.8883 569 73.0517H558ZM553 78.0517V67.0517H16V78.0517V89.0517H553V78.0517ZM16 78.0517V67.0517C19.3137 67.0517 22 69.738 22 73.0517H11H0C0 81.8883 7.16349 89.0517 16 89.0517V78.0517ZM11 73.0517H22V16.8323H11H0V73.0517H11ZM11 16.8323H22C22 20.146 19.3137 22.8323 16 22.8323V11.8323V0.832283C7.16345 0.832283 0 7.99572 0 16.8323H11ZM16 11.8323V22.8323H225.519V11.8323V0.832283H16V11.8323Z" fill="white" mask="url(#path-1-outside-1_84_833)"/>
</svg>
